<svg width="24" height="20" viewBox="0 0 24 20" fill="none" xmlns="http://www.w3.org/2000/svg">
<path d="M20.317 2.36979C18.761 1.65555 17.119 1.14623 15.4319 0.85459C15.4166 0.85173 15.4007 0.853777 15.3867 0.860438C15.3726 0.867099 15.3609 0.878035 15.3534 0.89169C15.1424 1.26699 14.9087 1.75649 14.7451 2.14119C12.9004 1.86499 11.0651 1.86499 9.2583 2.14119C9.0947 1.74789 8.8525 1.26699 8.6406 0.89169C8.63276 0.878346 8.62107 0.867677 8.60706 0.861077C8.59306 0.854477 8.57739 0.852251 8.5621 0.85469C6.87488 1.14566 5.2327 1.65493 3.6769 2.36969C3.66359 2.37538 3.65238 2.38506 3.6448 2.39739C0.533404 7.04579 -0.318996 11.5799 0.099204 16.0578C0.100386 16.0688 0.103757 16.0794 0.109116 16.089C0.114476 16.0986 0.121714 16.1071 0.130404 16.1139C2.1832 17.6215 4.1717 18.5367 6.1233 19.1433C6.13848 19.1478 6.15468 19.1476 6.16972 19.1427C6.18477 19.1377 6.19795 19.1283 6.2075 19.1157C6.6691 18.4853 7.0806 17.8205 7.4335 17.1215C7.43835 17.1119 7.44112 17.1014 7.44163 17.0907C7.44213 17.08 7.44036 17.0693 7.43643 17.0593C7.4325 17.0493 7.4265 17.0403 7.41883 17.0328C7.41115 17.0253 7.40198 17.0195 7.3919 17.0158C6.7391 16.7682 6.1176 16.4663 5.5197 16.1235C5.5088 16.1171 5.49964 16.1081 5.49304 16.0973C5.48643 16.0865 5.48258 16.0743 5.48183 16.0617C5.48108 16.049 5.48345 16.0364 5.48873 16.0249C5.49401 16.0135 5.50204 16.0034 5.5121 15.9958C5.6379 15.9015 5.7638 15.8035 5.8839 15.7044C5.89458 15.6956 5.9075 15.6899 5.92121 15.6881C5.93492 15.6862 5.94887 15.6882 5.9615 15.6939C9.8893 17.4872 14.1415 17.4872 18.0229 15.6939C18.0355 15.6879 18.0496 15.6856 18.0635 15.6873C18.0774 15.6889 18.0906 15.6945 18.1014 15.7034C18.2216 15.8024 18.3474 15.9015 18.4742 15.9958C18.4843 16.0034 18.4924 16.0133 18.4977 16.0247C18.5031 16.0362 18.5055 16.0487 18.5049 16.0613C18.5042 16.074 18.5005 16.0862 18.494 16.097C18.4875 16.1078 18.4784 16.1169 18.4676 16.1234C17.8695 16.4727 17.2429 16.7709 16.5946 17.0148C16.5845 17.0186 16.5754 17.0246 16.5678 17.0322C16.5602 17.0398 16.5542 17.049 16.5504 17.059C16.5466 17.0691 16.5449 17.0799 16.5455 17.0906C16.5461 17.1014 16.549 17.1119 16.5539 17.1215C16.9143 17.8195 17.3258 18.4843 17.7789 19.1147C17.7882 19.1277 17.8013 19.1375 17.8164 19.1426C17.8315 19.1477 17.8478 19.148 17.8631 19.1433C19.8241 18.5366 21.8126 17.6214 23.8654 16.1139C23.8742 16.1074 23.8816 16.0992 23.887 16.0897C23.8924 16.0801 23.8957 16.0696 23.8967 16.0587C24.3971 10.8817 23.0585 6.38479 20.3482 2.39829C20.3416 2.38534 20.3305 2.37519 20.317 2.36969V2.36979ZM8.02 13.3312C6.8375 13.3312 5.8631 12.2455 5.8631 10.9122C5.8631 9.57899 6.8186 8.49329 8.0201 8.49329C9.2309 8.49329 10.1958 9.58849 10.1769 10.9123C10.1769 12.2455 9.2214 13.3312 8.02 13.3312ZM15.9948 13.3312C14.8123 13.3312 13.8379 12.2455 13.8379 10.9122C13.8379 9.57899 14.7933 8.49329 15.9948 8.49329C17.2056 8.49329 18.1705 9.58849 18.1516 10.9123C18.1516 12.2455 17.2056 13.3312 15.9948 13.3312Z" fill="#5A65EA"/>
</svg>
